<svg width="16" height="16" viewBox="0 0 16 16" fill="none" xmlns="http://www.w3.org/2000/svg">
<path fill-rule="evenodd" clip-rule="evenodd" d="M1.64592 4.64601C1.69236 4.59945 1.74754 4.5625 1.80828 4.5373C1.86903 4.51209 1.93415 4.49911 1.99992 4.49911C2.06568 4.49911 2.13081 4.51209 2.19155 4.5373C2.2523 4.5625 2.30747 4.59945 2.35392 4.64601L7.99992 10.293L13.6459 4.64601C13.6924 4.59952 13.7476 4.56264 13.8083 4.53749C13.8691 4.51233 13.9342 4.49938 13.9999 4.49938C14.0657 4.49938 14.1308 4.51233 14.1915 4.53749C14.2522 4.56264 14.3074 4.59952 14.3539 4.64601C14.4004 4.6925 14.4373 4.74769 14.4624 4.80842C14.4876 4.86916 14.5005 4.93426 14.5005 5.00001C14.5005 5.06575 14.4876 5.13085 14.4624 5.19159C14.4373 5.25233 14.4004 5.30752 14.3539 5.35401L8.35392 11.354C8.30747 11.4006 8.2523 11.4375 8.19155 11.4627C8.13081 11.4879 8.06568 11.5009 7.99992 11.5009C7.93415 11.5009 7.86903 11.4879 7.80828 11.4627C7.74754 11.4375 7.69236 11.4006 7.64592 11.354L1.64592 5.35401C1.59935 5.30756 1.56241 5.25239 1.5372 5.19164C1.512 5.1309 1.49902 5.06578 1.49902 5.00001C1.49902 4.93424 1.512 4.86912 1.5372 4.80837C1.56241 4.74763 1.59935 4.69245 1.64592 4.64601Z" fill="black"/>
</svg>
