<!DOCTYPE svg PUBLIC "-//W3C//DTD SVG 1.1//EN" "http://www.w3.org/Graphics/SVG/1.1/DTD/svg11.dtd">
<!-- Uploaded to: SVG Repo, www.svgrepo.com, Transformed by: SVG Repo Mixer Tools -->
<svg version="1.1" id="designs" xmlns="http://www.w3.org/2000/svg" xmlns:xlink="http://www.w3.org/1999/xlink" width="800px" height="800px" viewBox="0 0 32 32" xml:space="preserve" fill="#000000">
<g id="SVGRepo_bgCarrier" stroke-width="0"/>
<g id="SVGRepo_tracerCarrier" stroke-linecap="round" stroke-linejoin="round"/>
<g id="SVGRepo_iconCarrier"> <style type="text/css"> .sketchy_een{fill:#ffffff;} </style> <path class="sketchy_een" d="M25.982,10.981c-0.192-0.802-1.044-1.085-1.729-1.349c-0.056-0.021-0.119-0.03-0.183-0.03 c-0.009,0-0.018,0.003-0.027,0.004c-0.013-0.03-0.025-0.061-0.038-0.091c-0.144-0.332-0.326-0.658-0.534-0.955 c-0.524-0.751-1.184-1.434-1.921-1.978c-0.699-0.518-1.52-0.805-2.317-1.135c-0.292-0.121-0.595-0.222-0.902-0.312 c0.009-0.015,0.017-0.029,0.026-0.044c0.228-0.367,0.466-0.721,0.763-1.035c0.226-0.189,0.469-0.357,0.706-0.535 c0.206-0.156,0.417-0.293,0.637-0.422c0.325-0.168,0.66-0.317,1.011-0.421c0.23-0.047,0.46-0.083,0.694-0.089 c0.145,0.014,0.289,0.034,0.431,0.065c0.027,0.012,0.054,0.024,0.081,0.037c0.038,0.03,0.075,0.06,0.11,0.093 c0.052,0.063,0.099,0.126,0.143,0.194c0.025,0.061,0.046,0.122,0.066,0.184c0.006,0.04,0.01,0.079,0.013,0.119 c-0.002,0.01-0.003,0.02-0.005,0.029c-0.016,0.042-0.032,0.083-0.051,0.124c-0.014,0.018-0.028,0.036-0.042,0.053 c-0.061,0.049-0.124,0.095-0.19,0.139c-0.063,0.029-0.126,0.056-0.192,0.079c-0.037,0.005-0.074,0.009-0.111,0.012 c-0.026-0.003-0.051-0.008-0.077-0.012c-0.001-0.001-0.003-0.001-0.004-0.002c-0.043-0.035-0.084-0.073-0.123-0.113 c-0.114-0.089-0.241-0.146-0.384-0.17c-0.22-0.036-0.448,0.019-0.626,0.152c-0.363,0.267-0.443,0.797-0.173,1.159 c0.094,0.126,0.203,0.24,0.32,0.345c0.182,0.165,0.428,0.251,0.659,0.316c0.433,0.126,0.935,0.057,1.339-0.142 c0.311-0.153,0.599-0.339,0.83-0.603c0.382-0.434,0.578-1.063,0.471-1.636c-0.147-0.813-0.711-1.531-1.487-1.831 c-0.479-0.184-1.031-0.208-1.535-0.146c-0.379,0.046-0.758,0.133-1.117,0.271c-0.029,0.011-0.058,0.023-0.086,0.034 c-0.376,0.158-0.74,0.373-1.089,0.586c-0.177,0.108-0.342,0.236-0.509,0.358c-0.166,0.12-0.336,0.236-0.496,0.364 c-0.376,0.297-0.684,0.653-0.97,1.034c-0.275,0.363-0.51,0.754-0.747,1.143h0c-0.14-0.008-0.279-0.012-0.419-0.012 c-0.283,0-0.565,0.015-0.849,0.037c-0.466,0.039-0.935,0.097-1.384,0.231c-0.858,0.256-1.696,0.594-2.447,1.079 c-0.38,0.247-0.703,0.567-1.023,0.885c-0.328,0.326-0.606,0.706-0.875,1.081C9.224,8.675,8.889,9.286,8.645,9.927 c-0.627,0.067-1.246,0.226-1.735,0.648c-0.254,0.221-0.454,0.507-0.627,0.796c-0.206,0.349-0.332,0.757-0.345,1.163 c-0.014,0.351,0.126,0.677,0.26,0.992c0.153,0.359,0.421,0.65,0.728,0.883c0.438,0.331,0.96,0.508,1.497,0.574 c0.012,0.014,0.014,0.034,0.028,0.048c0.058,0.073,0.123,0.141,0.182,0.215c-0.059,0.115-0.101,0.24-0.107,0.377 c-0.035,0.834-0.116,1.664-0.218,2.492c-0.086,0.637-0.16,1.273-0.193,1.916c-0.033,0.664-0.035,1.324-0.021,1.989 c0.017,0.767,0.089,1.516,0.206,2.275c0.101,0.656,0.348,1.285,0.604,1.897c0.098,0.237,0.194,0.475,0.32,0.698 c0.118,0.212,0.246,0.417,0.377,0.621c0.239,0.378,0.489,0.747,0.772,1.095c0.13,0.159,0.266,0.312,0.408,0.462 c0.25,0.268,0.567,0.483,0.879,0.673c0.378,0.229,0.765,0.456,1.163,0.648c0.229,0.111,0.472,0.204,0.71,0.289 c0.192,0.07,0.384,0.147,0.582,0.19c0.264,0.058,0.534,0.087,0.802,0.107c0.192,0.016,0.386,0.031,0.58,0.025 c0.427-0.016,0.854-0.068,1.283-0.076c0.452-0.01,0.881-0.128,1.318-0.243c0.392-0.105,0.776-0.231,1.168-0.338 c0.4-0.111,0.759-0.307,1.108-0.524c0.171-0.107,0.332-0.235,0.491-0.355c0.217-0.163,0.454-0.322,0.648-0.514 c0.351-0.346,0.644-0.741,0.928-1.141c0.246-0.347,0.458-0.716,0.648-1.095c0.217-0.435,0.365-0.902,0.505-1.368 c0.266-0.889,0.466-1.803,0.559-2.727c0.111-1.083,0.243-2.191,0.132-3.278c-0.056-0.557-0.138-1.114-0.27-1.658 c-0.11-0.444-0.281-0.871-0.458-1.294c-0.091-0.231-0.159-0.469-0.24-0.704c-0.022-0.064-0.062-0.117-0.095-0.173 c0.109-0.15,0.211-0.304,0.3-0.465c0.128-0.233,0.231-0.478,0.334-0.722c0.054-0.017,0.109-0.026,0.162-0.046 c0.227-0.089,0.439-0.19,0.642-0.322c0.404-0.26,0.72-0.648,1.005-1.027c0.264-0.351,0.408-0.8,0.4-1.238 C26.057,11.456,26.036,11.21,25.982,10.981z M24.483,11.367c0,0.001,0,0.001,0,0.002c-0.007-0.01-0.015-0.019-0.022-0.029 C24.469,11.349,24.477,11.358,24.483,11.367z M12.209,28.014c-0.277-0.24-0.51-0.521-0.738-0.807 c-0.414-0.55-0.797-1.115-1.084-1.742c-0.116-0.278-0.228-0.557-0.324-0.843c-0.112-0.336-0.18-0.675-0.235-1.02 c-0.098-0.865-0.112-1.729-0.116-2.598c-0.005-0.816,0.057-1.631,0.154-2.441c0.088-0.633,0.176-1.267,0.25-1.902 c0.006,0.004,0.012,0.009,0.018,0.013c0.276,0.177,0.551,0.361,0.844,0.51c0.304,0.156,0.612,0.292,0.925,0.424 c0.359,0.17,0.705,0.361,1.068,0.521c0.423,0.186,0.852,0.345,1.302,0.45c0.8,0.188,1.657,0.266,2.478,0.2 c0.096-0.008,0.191-0.025,0.287-0.035c-0.034,0.496-0.065,0.992-0.076,1.492c-0.012,0.572-0.061,1.139-0.13,1.707 c-0.085,0.547-0.192,1.089-0.32,1.628c-0.124,0.524-0.298,1.028-0.495,1.527c-0.275,0.611-0.599,1.19-0.943,1.767 c-0.346,0.582-0.704,1.162-1.099,1.713c-0.088,0.109-0.187,0.203-0.285,0.3c-0.211-0.106-0.421-0.212-0.626-0.332 C12.772,28.377,12.484,28.208,12.209,28.014z M22.529,21.052c-0.017,0.334-0.054,0.666-0.087,0.998 c-0.029,0.288-0.052,0.577-0.086,0.864c-0.09,0.515-0.209,1.026-0.343,1.531c-0.124,0.469-0.264,0.934-0.441,1.386 c-0.252,0.526-0.559,1.015-0.903,1.483c-0.2,0.241-0.412,0.459-0.656,0.657c-0.341,0.258-0.688,0.517-1.072,0.704 c-0.631,0.221-1.288,0.421-1.948,0.536c-0.377,0.039-0.755,0.052-1.134,0.068c-0.178,0.007-0.353-0.011-0.528-0.016 c0.172-0.248,0.343-0.497,0.509-0.749c0.448-0.685,0.901-1.386,1.262-2.121c0.39-0.788,0.712-1.605,0.924-2.459 c0.217-0.879,0.375-1.772,0.477-2.673c0.106-0.937,0.166-1.879,0.256-2.816c0.11-0.029,0.222-0.044,0.331-0.077 c0.441-0.134,0.862-0.291,1.283-0.475c0.355-0.155,0.708-0.318,1.019-0.553c0.168-0.128,0.323-0.268,0.482-0.404 c0.076,0.22,0.16,0.437,0.231,0.658c0.168,0.525,0.295,1.056,0.378,1.599C22.55,19.812,22.564,20.428,22.529,21.052z M24.483,11.774 c-0.041,0.081-0.087,0.158-0.138,0.233c-0.177,0.213-0.367,0.422-0.574,0.605c-0.071,0.046-0.144,0.088-0.219,0.126 c-0.127,0.042-0.254,0.074-0.385,0.098c-0.024,0.003-0.047,0.005-0.07,0.007c-0.225,0.021-0.413,0.074-0.578,0.239 c-0.151,0.153-0.239,0.363-0.239,0.578c0,0.022,0.011,0.042,0.013,0.063c-0.036,0.084-0.075,0.167-0.11,0.251 c-0.131,0.28-0.293,0.537-0.477,0.785c-0.172,0.213-0.349,0.421-0.531,0.622c-0.213,0.234-0.461,0.448-0.709,0.649 c-0.323,0.226-0.674,0.396-1.033,0.557c-0.734,0.294-1.513,0.495-2.295,0.615c-0.305,0.037-0.611,0.064-0.92,0.069 c-0.326,0.005-0.655-0.021-0.979-0.057c-0.479-0.078-0.941-0.203-1.393-0.377c-0.248-0.109-0.495-0.225-0.737-0.346 c-0.32-0.159-0.639-0.305-0.967-0.443c0.062,0.025,0.122,0.052,0.184,0.078c-0.546-0.252-1.051-0.564-1.536-0.915 c-0.161-0.14-0.312-0.285-0.455-0.444c-0.103-0.114-0.198-0.235-0.292-0.357c-0.098-0.129-0.194-0.256-0.292-0.385 c-0.098-0.128-0.206-0.222-0.334-0.296c-0.132-0.12-0.304-0.198-0.494-0.201c-0.099-0.001-0.196-0.006-0.293-0.015 c-0.144-0.026-0.281-0.062-0.419-0.111c-0.118-0.057-0.228-0.12-0.337-0.194c-0.056-0.05-0.109-0.101-0.159-0.156 c-0.038-0.059-0.073-0.118-0.104-0.181c-0.035-0.095-0.065-0.191-0.088-0.29c-0.001-0.022-0.001-0.045-0.001-0.067 c0.016-0.074,0.037-0.146,0.061-0.219c0.056-0.112,0.12-0.218,0.191-0.321c0.058-0.068,0.119-0.134,0.185-0.195 c0.045-0.028,0.09-0.054,0.137-0.078c0.051-0.018,0.105-0.024,0.156-0.039c-0.034,0.461,0.414,0.848,0.848,0.848 c0.485,0,0.821-0.388,0.85-0.85c0.006-0.101,0.015-0.202,0.024-0.303c0.069-0.393,0.17-0.774,0.315-1.149 c0.249-0.547,0.576-1.059,0.93-1.543c0.279-0.347,0.585-0.687,0.926-0.974c0.329-0.232,0.677-0.432,1.042-0.601 c0.544-0.211,1.102-0.398,1.679-0.494c0.719-0.073,1.434-0.101,2.153-0.025c0.463,0.083,0.922,0.198,1.364,0.363 c0.256,0.112,0.511,0.224,0.768,0.334c0.472,0.208,0.94,0.423,1.363,0.721c0.42,0.349,0.79,0.75,1.141,1.169 c0.369,0.521,0.661,1.095,0.916,1.679c0.03,0.076,0.059,0.152,0.087,0.23c0.078,0.227,0.202,0.415,0.413,0.54 c0.208,0.12,0.462,0.153,0.693,0.089c0.245-0.067,0.426-0.223,0.535-0.42c0.045,0.025,0.093,0.042,0.136,0.069 c0.019,0.017,0.037,0.034,0.055,0.051c0.007,0.116,0.007,0.23,0.001,0.345C24.489,11.755,24.486,11.764,24.483,11.774z M24.522,11.431C24.522,11.432,24.523,11.432,24.522,11.431c0.007,0.015,0.014,0.03,0.019,0.046 C24.535,11.462,24.529,11.447,24.522,11.431z M14.515,11.485c0,0.46-0.384,0.844-0.844,0.844c-0.46,0-0.844-0.384-0.844-0.844 s0.384-0.844,0.844-0.844C14.13,10.641,14.515,11.025,14.515,11.485z M18.857,11.621c0,0.46-0.384,0.844-0.844,0.844 c-0.46,0-0.844-0.384-0.844-0.844c0-0.46,0.384-0.844,0.844-0.844C18.472,10.776,18.857,11.161,18.857,11.621z M8.889,26.16 c0.004,0.01,0.009,0.02,0.014,0.03c0.013,0.031,0.025,0.062,0.038,0.092C8.923,26.242,8.905,26.201,8.889,26.16z"/> </g>
</svg>