<svg width="100" height="100" viewBox="0 0 100 100" fill="none" xmlns="http://www.w3.org/2000/svg">
<path d="M31.25 50C31.25 51.6576 30.5915 53.2473 29.4194 54.4194C28.2473 55.5915 26.6576 56.25 25 56.25C23.3424 56.25 21.7527 55.5915 20.5806 54.4194C19.4085 53.2473 18.75 51.6576 18.75 50C18.75 48.3424 19.4085 46.7527 20.5806 45.5806C21.7527 44.4085 23.3424 43.75 25 43.75C26.6576 43.75 28.2473 44.4085 29.4194 45.5806C30.5915 46.7527 31.25 48.3424 31.25 50ZM56.25 50C56.25 51.6576 55.5915 53.2473 54.4194 54.4194C53.2473 55.5915 51.6576 56.25 50 56.25C48.3424 56.25 46.7527 55.5915 45.5806 54.4194C44.4085 53.2473 43.75 51.6576 43.75 50C43.75 48.3424 44.4085 46.7527 45.5806 45.5806C46.7527 44.4085 48.3424 43.75 50 43.75C51.6576 43.75 53.2473 44.4085 54.4194 45.5806C55.5915 46.7527 56.25 48.3424 56.25 50ZM75 56.25C76.6576 56.25 78.2473 55.5915 79.4194 54.4194C80.5915 53.2473 81.25 51.6576 81.25 50C81.25 48.3424 80.5915 46.7527 79.4194 45.5806C78.2473 44.4085 76.6576 43.75 75 43.75C73.3424 43.75 71.7527 44.4085 70.5806 45.5806C69.4085 46.7527 68.75 48.3424 68.75 50C68.75 51.6576 69.4085 53.2473 70.5806 54.4194C71.7527 55.5915 73.3424 56.25 75 56.25Z" fill="#D9D9D9"/>
<path d="M13.5312 98.7688L13.6562 98.7438C25.0938 96.475 32.0812 93.4813 35.3312 91.8375C40.1153 93.118 45.0475 93.761 50 93.75C77.6125 93.75 100 74.1625 100 50C100 25.8375 77.6125 6.25 50 6.25C22.3875 6.25 0 25.8375 0 50C0 61 4.64375 71.0625 12.3125 78.75C11.778 83.6884 10.6791 88.5493 9.0375 93.2375L9.01875 93.3063C8.5517 94.6488 8.04312 95.9765 7.49375 97.2875C7 98.45 7.95625 99.75 9.2 99.55C10.6478 99.3127 12.0918 99.0523 13.5312 98.7688ZM18.5312 79.3438C18.6188 78.4287 18.5034 77.5057 18.1934 76.6403C17.8833 75.775 17.3862 74.9887 16.7375 74.3375C10.1125 67.6875 6.25 59.175 6.25 50C6.25 30.05 25.025 12.5 50 12.5C74.975 12.5 93.75 30.05 93.75 50C93.75 69.95 74.975 87.5 50 87.5C45.5941 87.5108 41.2061 86.9392 36.95 85.8C35.4624 85.4014 33.8799 85.5661 32.5063 86.2625C30.0875 87.4875 24.7563 89.825 16.0437 91.8438C17.2582 87.7631 18.0909 83.5784 18.5312 79.3438Z" fill="#D9D9D9"/>
</svg>
