<svg width="16" height="16" viewBox="0 0 16 16" fill="none" xmlns="http://www.w3.org/2000/svg">
<g clip-path="url(#clip0_150_29)">
<path d="M8 15C6.14348 15 4.36301 14.2625 3.05025 12.9497C1.7375 11.637 1 9.85652 1 8C1 6.14348 1.7375 4.36301 3.05025 3.05025C4.36301 1.7375 6.14348 1 8 1C9.85652 1 11.637 1.7375 12.9497 3.05025C14.2625 4.36301 15 6.14348 15 8C15 9.85652 14.2625 11.637 12.9497 12.9497C11.637 14.2625 9.85652 15 8 15ZM8 16C10.1217 16 12.1566 15.1571 13.6569 13.6569C15.1571 12.1566 16 10.1217 16 8C16 5.87827 15.1571 3.84344 13.6569 2.34315C12.1566 0.842855 10.1217 0 8 0C5.87827 0 3.84344 0.842855 2.34315 2.34315C0.842855 3.84344 0 5.87827 0 8C0 10.1217 0.842855 12.1566 2.34315 13.6569C3.84344 15.1571 5.87827 16 8 16Z" fill="#646363"/>
<path d="M4.28514 9.567C4.39998 9.5007 4.53646 9.48273 4.66454 9.51705C4.79263 9.55137 4.90184 9.63516 4.96814 9.75C5.27541 10.2822 5.71738 10.7241 6.24963 11.0313C6.78187 11.3385 7.38561 11.5002 8.00014 11.5C8.61468 11.5002 9.21842 11.3385 9.75066 11.0313C10.2829 10.7241 10.7249 10.2822 11.0321 9.75C11.0647 9.69268 11.1083 9.64237 11.1605 9.60197C11.2126 9.56156 11.2722 9.53187 11.3358 9.5146C11.3994 9.49732 11.4659 9.4928 11.5312 9.5013C11.5966 9.5098 11.6597 9.53115 11.7168 9.56412C11.7739 9.59709 11.8239 9.64103 11.864 9.69341C11.904 9.74579 11.9333 9.80558 11.9502 9.86933C11.967 9.93308 11.9711 9.99953 11.9622 10.0649C11.9533 10.1302 11.9315 10.1931 11.8981 10.25C11.5031 10.9342 10.9349 11.5024 10.2506 11.8973C9.56639 12.2923 8.79021 12.5002 8.00014 12.5C7.21008 12.5002 6.4339 12.2923 5.74964 11.8973C5.06538 11.5024 4.49718 10.9342 4.10214 10.25C4.03584 10.1352 4.01787 9.99869 4.05219 9.8706C4.08651 9.74251 4.17031 9.63331 4.28514 9.567ZM7.00014 6.5C7.00014 7.328 6.55214 8 6.00014 8C5.44814 8 5.00014 7.328 5.00014 6.5C5.00014 5.672 5.44814 5 6.00014 5C6.55214 5 7.00014 5.672 7.00014 6.5ZM11.0001 6.5C11.0001 7.328 10.5521 8 10.0001 8C9.44814 8 9.00014 7.328 9.00014 6.5C9.00014 5.672 9.44814 5 10.0001 5C10.5521 5 11.0001 5.672 11.0001 6.5Z" fill="#646363"/>
</g>
<defs>
<clipPath id="clip0_150_29">
<rect width="16" height="16" fill="white"/>
</clipPath>
</defs>
</svg>
