<svg width="24" height="24" viewBox="0 0 24 24" fill="none" xmlns="http://www.w3.org/2000/svg">
<path opacity="0.4" d="M16.1898 2H7.81976C4.17976 2 2.00977 4.17 2.00977 7.81V16.18C2.00977 19.82 4.17976 21.99 7.81976 21.99H16.1898C19.8298 21.99 21.9998 19.82 21.9998 16.18V7.81C21.9998 4.17 19.8298 2 16.1898 2Z" fill="white" fill-opacity="0.8"/>
<path d="M13.92 9.2802L13.97 12.2302L16.6 12.1902C16.79 12.1902 16.93 12.3602 16.9 12.5402L16.55 14.4502C16.52 14.5902 16.4 14.6902 16.26 14.7002L14.01 14.7402L14.13 21.9902L11.13 22.0402L11.01 14.7902L9.30997 14.8202C9.13997 14.8202 9.00998 14.6902 9.00998 14.5202L8.97998 12.6202C8.97998 12.4502 9.10997 12.3202 9.27997 12.3202L10.98 12.2902L10.93 9.0402C10.9 7.3802 12.22 6.0202 13.88 5.9902L16.58 5.9502C16.75 5.9502 16.88 6.0802 16.88 6.2502L16.92 8.6502C16.92 8.8202 16.79 8.9502 16.62 8.9502L14.22 8.9902C14.05 8.9802 13.92 9.1202 13.92 9.2802Z" fill="white" fill-opacity="0.8"/>
</svg>
