<svg width="16" height="16" viewBox="0 0 16 16" fill="none" xmlns="http://www.w3.org/2000/svg">
<path d="M12.8538 0.145996C12.76 0.052261 12.6329 -0.000396729 12.5003 -0.000396729C12.3677 -0.000396729 12.2406 0.052261 12.1468 0.145996L10.4998 1.793L14.2068 5.5L15.8538 3.854C15.9004 3.80755 15.9373 3.75238 15.9625 3.69163C15.9877 3.63088 16.0007 3.56576 16.0007 3.5C16.0007 3.43423 15.9877 3.36911 15.9625 3.30836C15.9373 3.24762 15.9004 3.19244 15.8538 3.146L12.8538 0.145996ZM13.4998 6.207L9.79281 2.5L3.29281 9H3.49981C3.63241 9 3.75959 9.05267 3.85336 9.14644C3.94713 9.24021 3.99981 9.36739 3.99981 9.5V10H4.49981C4.63241 10 4.75959 10.0527 4.85336 10.1464C4.94713 10.2402 4.99981 10.3674 4.99981 10.5V11H5.49981C5.63241 11 5.75959 11.0527 5.85336 11.1464C5.94713 11.2402 5.99981 11.3674 5.99981 11.5V12H6.49981C6.63241 12 6.75959 12.0527 6.85336 12.1464C6.94713 12.2402 6.99981 12.3674 6.99981 12.5V12.707L13.4998 6.207ZM6.03181 13.675C6.01076 13.619 5.99993 13.5598 5.99981 13.5V13H5.49981C5.3672 13 5.24002 12.9473 5.14625 12.8535C5.05248 12.7598 4.99981 12.6326 4.99981 12.5V12H4.49981C4.3672 12 4.24002 11.9473 4.14625 11.8535C4.05248 11.7598 3.99981 11.6326 3.99981 11.5V11H3.49981C3.3672 11 3.24002 10.9473 3.14625 10.8535C3.05248 10.7598 2.99981 10.6326 2.99981 10.5V10H2.49981C2.44003 9.99988 2.38076 9.98904 2.32481 9.968L2.14581 10.146C2.09816 10.194 2.06073 10.2511 2.03581 10.314L0.0358061 15.314C-0.000564594 15.4049 -0.0094681 15.5044 0.0101994 15.6003C0.0298668 15.6962 0.0772403 15.7841 0.146447 15.8534C0.215653 15.9226 0.303649 15.9699 0.399526 15.9896C0.495402 16.0093 0.594942 16.0004 0.685806 15.964L5.68581 13.964C5.74867 13.9391 5.80582 13.9016 5.85381 13.854L6.03181 13.675Z" fill="black"/>
</svg>
