<svg width="16" height="16" viewBox="0 0 16 16" fill="none" xmlns="http://www.w3.org/2000/svg">
<g clip-path="url(#clip0_205_1778)">
<path d="M15.8541 0.146028C15.9233 0.21536 15.9706 0.303502 15.9902 0.399505C16.0097 0.495508 16.0006 0.595141 15.9641 0.686028L10.1451 15.233C10.0938 15.3611 10.0081 15.4726 9.89759 15.5552C9.78703 15.6378 9.65583 15.6883 9.51844 15.7011C9.38104 15.7139 9.24277 15.6886 9.11885 15.6279C8.99492 15.5672 8.89015 15.4734 8.81605 15.357L5.63805 10.362L0.643054 7.18403C0.526372 7.11001 0.432405 7.0052 0.371524 6.88116C0.310642 6.75711 0.285212 6.61866 0.298039 6.48108C0.310866 6.3435 0.361452 6.21214 0.444215 6.10148C0.526978 5.99083 0.6387 5.9052 0.767054 5.85403L15.3141 0.0370277C15.4049 0.000439957 15.5046 -0.00863977 15.6006 0.0109164C15.6966 0.0304726 15.7847 0.0778028 15.8541 0.147028V0.146028ZM6.63605 10.07L9.39705 14.408L14.1301 2.57603L6.63605 10.07ZM13.4231 1.86903L1.59105 6.60203L5.93005 9.36203L13.4231 1.86903Z" fill="black"/>
</g>
<defs>
<clipPath id="clip0_205_1778">
<rect width="16" height="16" fill="white"/>
</clipPath>
</defs>
</svg>
