<svg width="20" height="20" viewBox="0 0 20 20" fill="none" xmlns="http://www.w3.org/2000/svg">
<g clip-path="url(#clip0_126_469)">
<path d="M16.8753 1.25009C16.378 1.25009 15.9011 1.44763 15.5495 1.79926C15.1979 2.15089 15.0003 2.62781 15.0003 3.12509C15.0003 3.62237 15.1979 4.09928 15.5495 4.45091C15.9011 4.80254 16.378 5.00009 16.8753 5.00009C17.3726 5.00009 17.8495 4.80254 18.2012 4.45091C18.5528 4.09928 18.7503 3.62237 18.7503 3.12509C18.7503 2.62781 18.5528 2.15089 18.2012 1.79926C17.8495 1.44763 17.3726 1.25009 16.8753 1.25009ZM13.7503 3.12509C13.7502 2.39188 14.008 1.68198 14.4784 1.1196C14.9489 0.55722 15.6021 0.178167 16.3238 0.0487587C17.0455 -0.0806492 17.7897 0.0478291 18.4262 0.411715C19.0628 0.775602 19.5511 1.35172 19.8058 2.03928C20.0604 2.72685 20.0652 3.48206 19.8193 4.1728C19.5734 4.86354 19.0924 5.44582 18.4606 5.81777C17.8287 6.18971 17.0862 6.32763 16.3629 6.2074C15.6396 6.08717 14.9816 5.71645 14.5041 5.16009L6.10658 9.06009C6.29955 9.6719 6.29955 10.3283 6.10658 10.9401L14.5041 14.8401C15.0089 14.253 15.7137 13.8742 16.4818 13.7772C17.25 13.6801 18.0268 13.8716 18.6618 14.3147C19.2968 14.7578 19.7447 15.4208 19.9187 16.1752C20.0927 16.9297 19.9804 17.7219 19.6036 18.3983C19.2268 19.0747 18.6123 19.5871 17.8792 19.8363C17.1461 20.0854 16.3466 20.0536 15.6357 19.7469C14.9247 19.4401 14.353 18.8804 14.0312 18.1762C13.7095 17.4719 13.6606 16.6733 13.8941 15.9351L5.49658 12.0351C5.08087 12.5196 4.52677 12.8651 3.9088 13.0252C3.29084 13.1853 2.63866 13.1523 2.04 12.9307C1.44135 12.709 0.924926 12.3094 0.560216 11.7854C0.195505 11.2615 0 10.6385 0 10.0001C0 9.36172 0.195505 8.73866 0.560216 8.21473C0.924926 7.6908 1.44135 7.29113 2.04 7.06949C2.63866 6.84785 3.29084 6.81487 3.9088 6.97498C4.52677 7.13509 5.08087 7.48062 5.49658 7.96509L13.8941 4.06509C13.7985 3.76092 13.75 3.44392 13.7503 3.12509ZM3.12533 8.12509C2.62805 8.12509 2.15114 8.32263 1.79951 8.67426C1.44788 9.02589 1.25033 9.50281 1.25033 10.0001C1.25033 10.4974 1.44788 10.9743 1.79951 11.3259C2.15114 11.6775 2.62805 11.8751 3.12533 11.8751C3.62261 11.8751 4.09953 11.6775 4.45116 11.3259C4.80279 10.9743 5.00033 10.4974 5.00033 10.0001C5.00033 9.50281 4.80279 9.02589 4.45116 8.67426C4.09953 8.32263 3.62261 8.12509 3.12533 8.12509ZM16.8753 15.0001C16.378 15.0001 15.9011 15.1976 15.5495 15.5493C15.1979 15.9009 15.0003 16.3778 15.0003 16.8751C15.0003 17.3724 15.1979 17.8493 15.5495 18.2009C15.9011 18.5525 16.378 18.7501 16.8753 18.7501C17.3726 18.7501 17.8495 18.5525 18.2012 18.2009C18.5528 17.8493 18.7503 17.3724 18.7503 16.8751C18.7503 16.3778 18.5528 15.9009 18.2012 15.5493C17.8495 15.1976 17.3726 15.0001 16.8753 15.0001Z" fill="white"/>
</g>
<defs>
<clipPath id="clip0_126_469">
<rect width="20" height="20" fill="white"/>
</clipPath>
</defs>
</svg>
