<svg width="200" height="200" viewBox="0 0 200 200" fill="none" xmlns="http://www.w3.org/2000/svg">
<g clip-path="url(#clip0_126_567)">
<path d="M81.25 0C79.5924 0 78.0027 0.65848 76.8306 1.83058C75.6585 3.00269 75 4.5924 75 6.25C75 7.9076 75.6585 9.49732 76.8306 10.6694C78.0027 11.8415 79.5924 12.5 81.25 12.5H87.5V25.875C65.6057 29.0395 45.7222 40.3784 31.85 57.6104C17.9779 74.8424 11.1466 96.6886 12.7306 118.754C14.3146 140.819 24.1964 161.465 40.3876 176.539C56.5789 191.613 77.8782 199.995 100 200C116.774 199.999 133.194 195.177 147.305 186.108C161.416 177.039 172.622 164.106 179.59 148.847C186.558 133.589 188.993 116.65 186.606 100.047C184.219 83.4439 177.109 67.8769 166.125 55.2L166.288 55.05L170.713 50.625L175.125 55.05C175.702 55.6469 176.391 56.1231 177.154 56.4506C177.916 56.7782 178.736 56.9506 179.566 56.9578C180.396 56.965 181.219 56.8069 181.987 56.4926C182.755 56.1784 183.453 55.7143 184.04 55.1275C184.627 54.5406 185.091 53.8428 185.405 53.0747C185.719 52.3066 185.878 51.4836 185.87 50.6537C185.863 49.8239 185.691 49.0037 185.363 48.2412C185.036 47.4787 184.559 46.789 183.963 46.2125L166.288 28.525C165.711 27.9281 165.021 27.4519 164.259 27.1244C163.496 26.7968 162.676 26.6244 161.846 26.6172C161.016 26.61 160.193 26.7681 159.425 27.0824C158.657 27.3966 157.959 27.8607 157.373 28.4475C156.786 29.0344 156.322 29.7322 156.007 30.5003C155.693 31.2684 155.535 32.0914 155.542 32.9213C155.549 33.7511 155.722 34.5713 156.049 35.3338C156.377 36.0963 156.853 36.786 157.45 37.3625L161.875 41.7875L157.45 46.2125L157.3 46.3625C144.647 35.3703 129.092 28.2612 112.5 25.8875V12.5H118.75C120.408 12.5 121.997 11.8415 123.169 10.6694C124.342 9.49732 125 7.9076 125 6.25C125 4.5924 124.342 3.00269 123.169 1.83058C121.997 0.65848 120.408 0 118.75 0L81.25 0ZM106.25 70V112.5C106.25 114.158 105.592 115.747 104.419 116.919C103.247 118.092 101.658 118.75 100 118.75H56.25C54.5924 118.75 53.0027 118.092 51.8306 116.919C50.6585 115.747 50 114.158 50 112.5C50 110.842 50.6585 109.253 51.8306 108.081C53.0027 106.908 54.5924 106.25 56.25 106.25H93.75V70C93.75 68.3424 94.4085 66.7527 95.5806 65.5806C96.7527 64.4085 98.3424 63.75 100 63.75C101.658 63.75 103.247 64.4085 104.419 65.5806C105.592 66.7527 106.25 68.3424 106.25 70Z" fill="#F5F5F5"/>
</g>
<defs>
<clipPath id="clip0_126_567">
<rect width="200" height="200" fill="white"/>
</clipPath>
</defs>
</svg>
