<svg width="25" height="25" viewBox="0 0 25 25" fill="none" xmlns="http://www.w3.org/2000/svg">
<path d="M12.5 9.74375L11.1031 6.94844C10.7563 6.25625 10.1547 5.26094 9.30313 4.45625C8.46562 3.66406 7.4625 3.125 6.25 3.125C3.63125 3.125 1.5625 5.19688 1.5625 7.6875C1.5625 9.57969 2.42813 10.9156 4.48125 12.9531C5.00781 13.475 5.60781 14.0391 6.27187 14.6609C8.00313 16.2859 10.1562 18.3078 12.5 21.0109C14.8438 18.3078 16.9969 16.2859 18.7281 14.6609C19.3922 14.0391 19.9937 13.4734 20.5187 12.9531C22.5719 10.9156 23.4375 9.57969 23.4375 7.6875C23.4375 5.19688 21.3687 3.125 18.75 3.125C17.5359 3.125 16.5344 3.66406 15.6969 4.45625C14.8453 5.26094 14.2437 6.25625 13.8969 6.94844L12.5 9.74375ZM13.1125 22.7C13.0373 22.7891 12.9435 22.8608 12.8377 22.9099C12.7319 22.9591 12.6166 22.9845 12.5 22.9845C12.3834 22.9845 12.2681 22.9591 12.1623 22.9099C12.0565 22.8608 11.9627 22.7891 11.8875 22.7C9.38594 19.7281 7.12187 17.6031 5.25781 15.8547C2.03125 12.825 0 10.9203 0 7.6875C0 4.30469 2.79688 1.5625 6.25 1.5625C8.75 1.5625 10.4984 3.20312 11.5687 4.7C11.975 5.27031 12.2844 5.81875 12.5 6.25C12.7706 5.71042 13.0819 5.19225 13.4312 4.7C14.5016 3.20156 16.25 1.5625 18.75 1.5625C22.2031 1.5625 25 4.30469 25 7.6875C25 10.9203 22.9688 12.825 19.7422 15.8547C17.8781 17.6047 15.6141 19.7313 13.1125 22.7Z" fill="#346164"/>
</svg>
