<svg width="20" height="20" viewBox="0 0 20 20" fill="none" xmlns="http://www.w3.org/2000/svg">
<path d="M10.625 6.25C10.625 6.08424 10.5592 5.92527 10.4419 5.80806C10.3247 5.69085 10.1658 5.625 10 5.625C9.83424 5.625 9.67527 5.69085 9.55806 5.80806C9.44085 5.92527 9.375 6.08424 9.375 6.25V9.375H7.5C7.33424 9.375 7.17527 9.44085 7.05806 9.55806C6.94085 9.67527 6.875 9.83424 6.875 10C6.875 10.1658 6.94085 10.3247 7.05806 10.4419C7.17527 10.5592 7.33424 10.625 7.5 10.625H10C10.1658 10.625 10.3247 10.5592 10.4419 10.4419C10.5592 10.3247 10.625 10.1658 10.625 10V6.25Z" fill="#B0CF33"/>
<path d="M7.08375 20C5.93375 20 5 19.0675 5 17.9163V15.5912C4.21334 14.8876 3.58405 14.0259 3.15325 13.0624C2.72245 12.099 2.49985 11.0554 2.5 10C2.5 7.77875 3.465 5.7825 5 4.41V2.08375C5 0.93375 5.9325 0 7.08375 0H12.9163C14.0662 0 15 0.9325 15 2.08375V4.40875C16.27 5.54435 17.1156 7.07853 17.3975 8.75875C17.4869 8.74431 17.5784 8.74941 17.6657 8.77369C17.753 8.79798 17.834 8.84087 17.9031 8.89942C17.9722 8.95798 18.0278 9.0308 18.0662 9.1129C18.1045 9.19499 18.1245 9.28441 18.125 9.375V10.625C18.125 10.7157 18.1052 10.8054 18.067 10.8877C18.0288 10.97 17.9732 11.043 17.904 11.1016C17.8347 11.1603 17.7536 11.2031 17.6661 11.2272C17.5787 11.2513 17.487 11.2561 17.3975 11.2413C17.1156 12.9215 16.27 14.4556 15 15.5912V17.9163C15 19.0662 14.0675 20 12.9163 20H7.08375ZM16.25 10C16.25 8.3424 15.5915 6.75269 14.4194 5.58058C13.2473 4.40848 11.6576 3.75 10 3.75C8.3424 3.75 6.75269 4.40848 5.58058 5.58058C4.40848 6.75269 3.75 8.3424 3.75 10C3.75 11.6576 4.40848 13.2473 5.58058 14.4194C6.75269 15.5915 8.3424 16.25 10 16.25C11.6576 16.25 13.2473 15.5915 14.4194 14.4194C15.5915 13.2473 16.25 11.6576 16.25 10Z" fill="#B0CF33"/>
</svg>
